<?xml version="1.0" encoding="utf-8"?>
<!-- Generator: Adobe Illustrator 27.5.0, SVG Export Plug-In . SVG Version: 6.00 Build 0)  -->
<svg version="1.1" id="Layer_1" xmlns="http://www.w3.org/2000/svg" xmlns:xlink="http://www.w3.org/1999/xlink" x="0px" y="0px"
	 viewBox="0 0 400 60" style="enable-background:new 0 0 400 60;" xml:space="preserve">
<style type="text/css">
	.st0{fill:#FFFFFF;}
</style>
<g>
	<g>
		<g>
			<g>
				<path class="st0" d="M92.35,35.19h-0.08l-4.67-18.83h-5.62l-4.74,18.6h-0.08l-4.32-18.6h-6.01l7.23,27.32h6.08l4.55-18.6h0.08
					l4.63,18.6h5.97l7.35-27.32h-5.89L92.35,35.19z M121.04,25.61c-0.53-0.7-1.27-1.25-2.2-1.65c-0.93-0.39-2.12-0.59-3.58-0.59
					c-1.02,0-2.07,0.26-3.14,0.78c-1.07,0.52-1.95,1.36-2.64,2.51h-0.11v-10.3h-5.43v27.32h5.43V33.32c0-2.02,0.33-3.46,1-4.34
					c0.66-0.88,1.73-1.32,3.21-1.32c1.3,0,2.21,0.4,2.72,1.21c0.51,0.8,0.77,2.02,0.77,3.65v11.17h5.43V31.52
					c0-1.22-0.11-2.34-0.33-3.35C121.95,27.16,121.58,26.31,121.04,25.61z M143.42,39.29V28.99c0-1.2-0.27-2.16-0.8-2.89
					c-0.53-0.73-1.22-1.29-2.06-1.7c-0.84-0.41-1.77-0.68-2.79-0.82c-1.02-0.14-2.03-0.21-3.02-0.21c-1.1,0-2.19,0.11-3.27,0.33
					c-1.09,0.22-2.06,0.58-2.93,1.09c-0.87,0.51-1.58,1.19-2.14,2.03c-0.56,0.84-0.88,1.9-0.96,3.18h5.43
					c0.1-1.07,0.46-1.84,1.07-2.3c0.61-0.46,1.45-0.69,2.52-0.69c0.48,0,0.94,0.03,1.36,0.1c0.42,0.06,0.79,0.19,1.11,0.38
					c0.32,0.19,0.57,0.46,0.76,0.8c0.19,0.34,0.29,0.81,0.29,1.4c0.03,0.56-0.14,0.99-0.5,1.28c-0.36,0.29-0.84,0.52-1.45,0.67
					c-0.61,0.15-1.31,0.27-2.1,0.34c-0.79,0.08-1.59,0.18-2.41,0.31c-0.82,0.13-1.63,0.3-2.43,0.52c-0.8,0.22-1.52,0.54-2.14,0.97
					c-0.63,0.44-1.14,1.02-1.53,1.74c-0.39,0.73-0.59,1.65-0.59,2.77c0,1.02,0.17,1.9,0.52,2.64c0.34,0.74,0.82,1.35,1.44,1.84
					c0.61,0.48,1.33,0.84,2.14,1.07c0.82,0.23,1.7,0.34,2.64,0.34c1.22,0,2.42-0.18,3.59-0.53c1.17-0.36,2.2-0.98,3.06-1.88
					c0.03,0.33,0.07,0.66,0.13,0.98c0.06,0.32,0.15,0.63,0.25,0.94h5.51c-0.25-0.41-0.43-1.02-0.54-1.84
					C143.47,41.04,143.42,40.18,143.42,39.29z M137.99,36.03c0,0.31-0.03,0.72-0.1,1.23c-0.06,0.51-0.24,1.01-0.52,1.51
					c-0.28,0.5-0.72,0.93-1.3,1.28c-0.59,0.36-1.42,0.54-2.49,0.54c-0.43,0-0.85-0.04-1.26-0.12c-0.41-0.08-0.76-0.21-1.07-0.4
					c-0.31-0.19-0.55-0.45-0.73-0.78c-0.18-0.33-0.27-0.74-0.27-1.22c0-0.51,0.09-0.93,0.27-1.26c0.18-0.33,0.42-0.61,0.71-0.82
					c0.29-0.22,0.64-0.39,1.03-0.52c0.4-0.13,0.8-0.23,1.21-0.31c0.43-0.08,0.87-0.14,1.3-0.19c0.44-0.05,0.85-0.12,1.24-0.19
					c0.4-0.08,0.77-0.17,1.11-0.29c0.34-0.11,0.63-0.27,0.86-0.48V36.03z M153.56,17.97h-5.43v5.93h-3.29v3.63h3.29v11.67
					c0,1,0.17,1.8,0.5,2.41c0.33,0.61,0.78,1.09,1.36,1.42c0.57,0.33,1.24,0.55,1.99,0.67c0.75,0.11,1.55,0.17,2.39,0.17
					c0.54,0,1.08-0.01,1.65-0.04c0.56-0.03,1.07-0.08,1.53-0.15v-4.21c-0.26,0.05-0.52,0.09-0.8,0.11
					c-0.28,0.03-0.57,0.04-0.88,0.04c-0.92,0-1.53-0.15-1.84-0.46c-0.3-0.31-0.46-0.92-0.46-1.84v-9.8h3.98V23.9h-3.98V17.97z
					 M176.02,35.02c-0.36-0.62-0.83-1.15-1.42-1.57c-0.59-0.42-1.26-0.76-2.01-1.01c-0.75-0.25-1.52-0.47-2.32-0.65
					c-0.76-0.18-1.52-0.35-2.26-0.5c-0.74-0.15-1.4-0.33-1.97-0.52c-0.57-0.19-1.04-0.44-1.39-0.75c-0.36-0.31-0.54-0.7-0.54-1.19
					c0-0.41,0.1-0.73,0.3-0.98c0.2-0.24,0.45-0.43,0.75-0.56c0.29-0.13,0.62-0.21,0.97-0.25c0.36-0.04,0.69-0.06,0.99-0.06
					c0.97,0,1.81,0.18,2.53,0.55c0.71,0.37,1.11,1.08,1.18,2.12h5.16c-0.1-1.22-0.41-2.24-0.94-3.04c-0.52-0.8-1.18-1.45-1.97-1.93
					c-0.79-0.48-1.69-0.83-2.7-1.03c-1.01-0.2-2.05-0.31-3.12-0.31c-1.07,0-2.12,0.1-3.14,0.29c-1.02,0.19-1.94,0.53-2.76,1
					c-0.82,0.47-1.47,1.11-1.97,1.93c-0.5,0.82-0.75,1.86-0.75,3.14c0,0.87,0.18,1.6,0.54,2.2c0.35,0.6,0.83,1.1,1.41,1.49
					c0.59,0.4,1.26,0.72,2.01,0.96c0.75,0.24,1.52,0.45,2.31,0.63c1.94,0.41,3.45,0.82,4.54,1.23c1.08,0.41,1.63,1.02,1.63,1.84
					c0,0.48-0.11,0.88-0.34,1.2c-0.23,0.32-0.52,0.57-0.86,0.77c-0.35,0.19-0.73,0.33-1.15,0.42c-0.42,0.09-0.82,0.14-1.21,0.14
					c-0.54,0-1.05-0.06-1.55-0.19c-0.5-0.13-0.94-0.33-1.32-0.59c-0.38-0.27-0.7-0.61-0.94-1.03c-0.24-0.42-0.36-0.92-0.36-1.51
					h-5.16c0.05,1.33,0.35,2.43,0.9,3.31c0.55,0.88,1.25,1.59,2.1,2.12c0.85,0.53,1.83,0.92,2.93,1.15
					c1.09,0.23,2.22,0.34,3.36,0.34c1.12,0,2.23-0.11,3.31-0.32c1.08-0.22,2.05-0.59,2.89-1.13c0.84-0.53,1.52-1.24,2.05-2.12
					c0.52-0.88,0.78-1.97,0.78-3.27C176.55,36.42,176.37,35.65,176.02,35.02z M186.8,16.36l-10.33,27.32h6.04l2.14-6.08h10.22
					l2.06,6.08h6.24l-10.21-27.32H186.8z M186.23,33.13l3.56-10.03h0.08l3.44,10.03H186.23z M221.96,26.58
					c-0.74-0.97-1.67-1.75-2.79-2.33c-1.12-0.59-2.46-0.88-4.02-0.88c-1.23,0-2.35,0.24-3.37,0.73c-1.02,0.49-1.86,1.26-2.52,2.34
					h-0.08V23.9h-5.17v26.71h5.44v-9.38h0.07c0.66,0.97,1.51,1.7,2.55,2.2c1.03,0.5,2.16,0.75,3.38,0.75c1.45,0,2.72-0.28,3.81-0.84
					c1.08-0.56,1.99-1.31,2.72-2.26c0.73-0.94,1.27-2.03,1.63-3.25c0.35-1.23,0.54-2.5,0.54-3.83c0-1.4-0.18-2.75-0.54-4.04
					C223.25,28.68,222.7,27.55,221.96,26.58z M218.48,36.19c-0.15,0.77-0.42,1.43-0.79,2.01c-0.37,0.57-0.85,1.04-1.46,1.4
					c-0.6,0.36-1.34,0.54-2.24,0.54c-0.87,0-1.6-0.18-2.22-0.54c-0.61-0.35-1.1-0.82-1.47-1.4c-0.37-0.57-0.64-1.24-0.8-2.01
					c-0.17-0.76-0.25-1.54-0.25-2.33c0-0.82,0.07-1.61,0.23-2.37c0.16-0.77,0.42-1.44,0.79-2.03c0.37-0.59,0.85-1.06,1.45-1.43
					c0.6-0.37,1.34-0.56,2.24-0.56c0.87,0,1.6,0.19,2.2,0.56c0.6,0.37,1.09,0.85,1.47,1.45c0.38,0.6,0.66,1.28,0.82,2.05
					c0.17,0.77,0.25,1.54,0.25,2.34C218.71,34.64,218.64,35.42,218.48,36.19z M245.26,29.97c-0.36-1.29-0.91-2.42-1.65-3.39
					c-0.74-0.97-1.67-1.75-2.79-2.33c-1.12-0.59-2.46-0.88-4.02-0.88c-1.22,0-2.35,0.24-3.37,0.73c-1.02,0.49-1.86,1.26-2.53,2.34
					h-0.07V23.9h-5.17v26.71h5.43v-9.38h0.08c0.66,0.97,1.51,1.7,2.54,2.2c1.03,0.5,2.16,0.75,3.39,0.75c1.45,0,2.72-0.28,3.81-0.84
					c1.08-0.56,1.99-1.31,2.72-2.26c0.73-0.94,1.27-2.03,1.63-3.25c0.36-1.23,0.54-2.5,0.54-3.83
					C245.8,32.6,245.62,31.26,245.26,29.97z M240.13,36.19c-0.15,0.77-0.41,1.43-0.78,2.01c-0.37,0.57-0.86,1.04-1.46,1.4
					c-0.6,0.36-1.34,0.54-2.24,0.54c-0.87,0-1.61-0.18-2.22-0.54c-0.61-0.35-1.1-0.82-1.47-1.4c-0.37-0.57-0.64-1.24-0.8-2.01
					c-0.17-0.76-0.25-1.54-0.25-2.33c0-0.82,0.08-1.61,0.23-2.37c0.15-0.77,0.41-1.44,0.78-2.03c0.37-0.59,0.85-1.06,1.45-1.43
					c0.6-0.37,1.34-0.56,2.24-0.56c0.87,0,1.6,0.19,2.2,0.56c0.6,0.37,1.09,0.85,1.47,1.45c0.38,0.6,0.66,1.28,0.82,2.05
					c0.17,0.77,0.25,1.54,0.25,2.34C240.36,34.64,240.29,35.42,240.13,36.19z"/>
			</g>
		</g>
		<g id="v2_00000174569997819121668350000000043646675979031219_">
			<path class="st0" d="M57.84,28.72c-0.27-7.36-3.33-14.19-8.64-19.28c-5.19-4.97-12.13-7.8-19.32-7.83c-0.05,0-0.09,0-0.14,0
				c-7.83,0-15.14,3.16-20.49,8.82c-5.16,5.47-7.88,12.61-7.67,20.13C1.71,35,2.9,39.37,5.02,43.26l-2.49,14.9
				c-0.02,0.13,0.09,0.25,0.21,0.25c0.01,0,0.03,0,0.04,0l14.73-3.28c3.79,1.82,7.97,2.78,12.2,2.78c0.27,0,0.54,0,0.8-0.01
				c7.84-0.22,15.1-3.62,20.31-9.53C55.6,42.96,58.1,35.9,57.84,28.72z M30.38,53c-0.22,0.01-0.44,0.01-0.67,0.01
				c-3.73,0-7.42-0.9-10.72-2.61L18.24,50l-10,2.36l1.84-10.11l-0.43-0.73c-1.97-3.36-3.08-7.2-3.19-11.11
				C6.1,17.59,16.23,6.86,29.05,6.5c0.23-0.01,0.45-0.01,0.68-0.01c12.52,0,22.88,10,23.24,22.59C53.34,41.9,43.21,52.63,30.38,53z"
				/>
			<path class="st0" d="M19.94,16.15c-0.47,0-1.21,0.17-1.85,0.83c-0.67,0.69-2.55,2.34-2.65,5.82c-0.11,3.48,2.32,6.92,2.66,7.4
				c0.34,0.48,4.65,7.99,11.74,11.04c4.17,1.79,6,2.1,7.18,2.1c0.49,0,0.86-0.05,1.24-0.08c1.3-0.08,4.23-1.58,4.87-3.21
				c0.64-1.63,0.68-3.05,0.52-3.35c-0.17-0.3-0.63-0.49-1.33-0.87c-0.7-0.38-4.11-2.19-4.75-2.45c-0.28-0.11-0.53-0.2-0.76-0.2
				c-0.29,0-0.55,0.13-0.84,0.5c-0.56,0.71-1.88,2.26-2.32,2.7c-0.23,0.23-0.47,0.36-0.77,0.36c-0.22,0-0.47-0.07-0.77-0.21
				c-0.84-0.39-2.94-1.21-5.56-3.7c-2.04-1.94-3.39-4.3-3.78-5.02c-0.39-0.72-0.01-1.09,0.35-1.43c0.33-0.31,0.73-0.8,1.1-1.21
				c0.37-0.4,0.49-0.69,0.74-1.16c0.25-0.46,0.14-0.88-0.02-1.24c-0.17-0.36-1.43-3.9-2.02-5.31c-0.49-1.19-1.05-1.23-1.55-1.27
				c-0.41-0.03-0.88-0.04-1.35-0.06C19.98,16.15,19.96,16.15,19.94,16.15"/>
		</g>
	</g>
	<g>
		<path class="st0" d="M266.38,16.37c0.59,0,1.22,0.01,1.89,0.02c0.68,0.01,1.35,0.05,2.01,0.11c0.66,0.06,1.28,0.16,1.86,0.29
			c0.57,0.13,1.07,0.32,1.47,0.57c0.89,0.54,1.65,1.28,2.28,2.22c0.62,0.94,0.94,2.1,0.94,3.48c0,1.45-0.35,2.71-1.05,3.77
			c-0.7,1.06-1.7,1.84-3,2.35v0.08c1.68,0.36,2.97,1.12,3.87,2.3c0.89,1.17,1.34,2.6,1.34,4.29c0,1-0.18,1.97-0.54,2.91
			c-0.36,0.94-0.89,1.78-1.59,2.51c-0.7,0.73-1.57,1.31-2.6,1.76c-1.03,0.45-2.23,0.67-3.58,0.67h-13.2V16.37H266.38z M267.37,28.11
			c2.07,0,3.55-0.36,4.46-1.09c0.91-0.73,1.36-1.82,1.36-3.27c0-0.97-0.15-1.73-0.46-2.3c-0.31-0.56-0.73-0.99-1.26-1.3
			c-0.54-0.31-1.16-0.5-1.86-0.59c-0.7-0.09-1.45-0.13-2.24-0.13h-7.27v8.69H267.37z M269.21,40.63c1.61,0,2.86-0.43,3.77-1.3
			c0.9-0.87,1.36-2.07,1.36-3.6c0-0.89-0.17-1.63-0.5-2.22c-0.33-0.59-0.77-1.05-1.32-1.4c-0.55-0.34-1.18-0.59-1.89-0.73
			c-0.71-0.14-1.45-0.21-2.22-0.21h-8.3v9.45H269.21z"/>
		<path class="st0" d="M294.12,43.69v-3.14h-0.08c-0.69,1.22-1.57,2.12-2.64,2.7c-1.07,0.57-2.33,0.86-3.79,0.86
			c-1.3,0-2.39-0.17-3.25-0.52c-0.87-0.34-1.57-0.84-2.11-1.47c-0.54-0.64-0.91-1.4-1.13-2.28c-0.22-0.88-0.33-1.86-0.33-2.93V23.9
			h3.25V37.3c0,1.22,0.36,2.19,1.07,2.91c0.71,0.71,1.7,1.07,2.95,1.07c0.99,0,1.86-0.15,2.58-0.46c0.73-0.31,1.33-0.74,1.82-1.3
			c0.48-0.56,0.85-1.22,1.09-1.97c0.24-0.75,0.36-1.57,0.36-2.47V23.9h3.25v19.78H294.12z"/>
		<path class="st0" d="M303.38,39.27c0.31,0.5,0.71,0.89,1.21,1.19c0.5,0.29,1.06,0.5,1.68,0.63c0.63,0.13,1.27,0.19,1.93,0.19
			c0.51,0,1.05-0.04,1.61-0.11c0.56-0.08,1.08-0.22,1.55-0.42c0.47-0.2,0.86-0.5,1.17-0.9c0.31-0.4,0.46-0.9,0.46-1.51
			c0-0.84-0.32-1.48-0.96-1.91c-0.64-0.43-1.43-0.78-2.39-1.05c-0.96-0.27-2-0.51-3.12-0.73c-1.12-0.22-2.16-0.52-3.12-0.92
			c-0.96-0.4-1.75-0.95-2.39-1.66c-0.64-0.71-0.96-1.71-0.96-2.98c0-0.99,0.22-1.85,0.67-2.56c0.45-0.71,1.02-1.29,1.72-1.74
			c0.7-0.45,1.49-0.78,2.37-1c0.88-0.22,1.75-0.33,2.62-0.33c1.12,0,2.16,0.1,3.1,0.29c0.94,0.19,1.78,0.52,2.51,0.99
			c0.73,0.47,1.31,1.11,1.74,1.91c0.43,0.8,0.69,1.81,0.77,3h-3.25c-0.05-0.64-0.22-1.17-0.5-1.59c-0.28-0.42-0.64-0.76-1.07-1.01
			c-0.43-0.25-0.91-0.44-1.44-0.55c-0.52-0.11-1.05-0.17-1.59-0.17c-0.49,0-0.98,0.04-1.47,0.11c-0.5,0.08-0.95,0.21-1.36,0.4
			c-0.41,0.19-0.74,0.45-1,0.77c-0.25,0.32-0.38,0.73-0.38,1.24c0,0.56,0.2,1.03,0.59,1.4c0.4,0.37,0.9,0.68,1.51,0.92
			c0.61,0.24,1.3,0.45,2.07,0.61c0.77,0.17,1.53,0.34,2.3,0.52c0.82,0.18,1.61,0.4,2.39,0.65c0.78,0.26,1.47,0.59,2.07,1.01
			c0.6,0.42,1.08,0.95,1.45,1.59c0.37,0.64,0.55,1.43,0.55,2.37c0,1.2-0.25,2.19-0.75,2.98c-0.5,0.79-1.15,1.43-1.95,1.91
			c-0.8,0.49-1.71,0.82-2.72,1.01c-1.01,0.19-2.01,0.29-3,0.29c-1.1,0-2.14-0.12-3.14-0.34c-1-0.23-1.88-0.61-2.64-1.13
			c-0.77-0.52-1.38-1.21-1.84-2.07c-0.46-0.85-0.71-1.89-0.77-3.12h3.25C302.91,38.17,303.07,38.77,303.38,39.27z"/>
		<path class="st0" d="M318.95,20.35v-3.98h3.25v3.98H318.95z M322.2,23.9v19.78h-3.25V23.9H322.2z"/>
		<path class="st0" d="M328.91,23.9v3.14h0.08c1.35-2.4,3.49-3.6,6.43-3.6c1.3,0,2.39,0.18,3.25,0.54c0.87,0.36,1.57,0.85,2.1,1.49
			c0.54,0.64,0.91,1.4,1.13,2.28c0.22,0.88,0.33,1.86,0.33,2.93v13.01h-3.25V30.29c0-1.22-0.36-2.19-1.07-2.91
			c-0.71-0.71-1.7-1.07-2.95-1.07c-1,0-1.86,0.15-2.58,0.46c-0.73,0.31-1.33,0.74-1.82,1.3c-0.49,0.56-0.85,1.22-1.09,1.97
			c-0.24,0.75-0.36,1.58-0.36,2.47v11.17h-3.25V23.9H328.91z"/>
		<path class="st0" d="M359.78,42.43c-1.48,1.12-3.34,1.68-5.59,1.68c-1.58,0-2.95-0.26-4.11-0.77c-1.16-0.51-2.14-1.22-2.93-2.14
			c-0.79-0.92-1.38-2.02-1.78-3.29c-0.4-1.28-0.62-2.67-0.67-4.17c0-1.51,0.23-2.88,0.69-4.13c0.46-1.25,1.1-2.33,1.93-3.25
			c0.83-0.92,1.81-1.63,2.95-2.14c1.14-0.51,2.38-0.77,3.73-0.77c1.76,0,3.22,0.36,4.38,1.09c1.16,0.73,2.09,1.65,2.79,2.77
			c0.7,1.12,1.19,2.35,1.45,3.67c0.27,1.33,0.38,2.59,0.33,3.79h-14.81c-0.03,0.87,0.08,1.69,0.31,2.47
			c0.23,0.78,0.6,1.47,1.11,2.07c0.51,0.6,1.16,1.08,1.95,1.43c0.79,0.36,1.72,0.54,2.79,0.54c1.38,0,2.51-0.32,3.39-0.96
			c0.88-0.64,1.46-1.61,1.74-2.91h3.22C362.21,39.63,361.26,41.3,359.78,42.43z M358.99,29.72c-0.29-0.69-0.69-1.28-1.19-1.78
			c-0.5-0.5-1.08-0.89-1.76-1.19c-0.68-0.29-1.42-0.44-2.24-0.44c-0.84,0-1.6,0.15-2.28,0.44c-0.68,0.29-1.26,0.7-1.74,1.21
			c-0.49,0.51-0.87,1.1-1.15,1.78c-0.28,0.68-0.45,1.4-0.5,2.16h11.37C359.46,31.14,359.29,30.41,358.99,29.72z"/>
		<path class="st0" d="M367.83,39.27c0.31,0.5,0.71,0.89,1.21,1.19c0.5,0.29,1.06,0.5,1.68,0.63c0.62,0.13,1.27,0.19,1.93,0.19
			c0.51,0,1.05-0.04,1.61-0.11c0.56-0.08,1.08-0.22,1.55-0.42c0.47-0.2,0.86-0.5,1.17-0.9c0.31-0.4,0.46-0.9,0.46-1.51
			c0-0.84-0.32-1.48-0.96-1.91c-0.64-0.43-1.44-0.78-2.39-1.05c-0.96-0.27-2-0.51-3.12-0.73c-1.12-0.22-2.16-0.52-3.12-0.92
			c-0.96-0.4-1.75-0.95-2.39-1.66c-0.64-0.71-0.96-1.71-0.96-2.98c0-0.99,0.22-1.85,0.67-2.56c0.45-0.71,1.02-1.29,1.72-1.74
			c0.7-0.45,1.49-0.78,2.37-1c0.88-0.22,1.75-0.33,2.62-0.33c1.12,0,2.16,0.1,3.1,0.29c0.94,0.19,1.78,0.52,2.51,0.99
			c0.73,0.47,1.31,1.11,1.74,1.91c0.43,0.8,0.69,1.81,0.77,3h-3.25c-0.05-0.64-0.22-1.17-0.5-1.59c-0.28-0.42-0.64-0.76-1.07-1.01
			c-0.43-0.25-0.91-0.44-1.44-0.55c-0.52-0.11-1.05-0.17-1.59-0.17c-0.49,0-0.98,0.04-1.47,0.11c-0.5,0.08-0.95,0.21-1.36,0.4
			c-0.41,0.19-0.74,0.45-0.99,0.77c-0.26,0.32-0.38,0.73-0.38,1.24c0,0.56,0.2,1.03,0.59,1.4c0.4,0.37,0.9,0.68,1.51,0.92
			c0.61,0.24,1.3,0.45,2.07,0.61c0.77,0.17,1.53,0.34,2.3,0.52c0.82,0.18,1.61,0.4,2.39,0.65c0.78,0.26,1.47,0.59,2.07,1.01
			c0.6,0.42,1.08,0.95,1.45,1.59c0.37,0.64,0.55,1.43,0.55,2.37c0,1.2-0.25,2.19-0.75,2.98c-0.5,0.79-1.15,1.43-1.95,1.91
			c-0.8,0.49-1.71,0.82-2.72,1.01c-1.01,0.19-2.01,0.29-3,0.29c-1.1,0-2.14-0.12-3.14-0.34c-0.99-0.23-1.88-0.61-2.64-1.13
			c-0.77-0.52-1.38-1.21-1.84-2.07c-0.46-0.85-0.71-1.89-0.77-3.12h3.25C367.36,38.17,367.52,38.77,367.83,39.27z"/>
		<path class="st0" d="M385.94,39.27c0.31,0.5,0.71,0.89,1.21,1.19c0.5,0.29,1.06,0.5,1.68,0.63c0.63,0.13,1.27,0.19,1.93,0.19
			c0.51,0,1.05-0.04,1.61-0.11c0.56-0.08,1.08-0.22,1.55-0.42c0.47-0.2,0.86-0.5,1.17-0.9c0.31-0.4,0.46-0.9,0.46-1.51
			c0-0.84-0.32-1.48-0.96-1.91c-0.64-0.43-1.43-0.78-2.39-1.05c-0.96-0.27-2-0.51-3.12-0.73c-1.12-0.22-2.16-0.52-3.12-0.92
			c-0.96-0.4-1.75-0.95-2.39-1.66c-0.64-0.71-0.96-1.71-0.96-2.98c0-0.99,0.22-1.85,0.67-2.56c0.45-0.71,1.02-1.29,1.72-1.74
			c0.7-0.45,1.49-0.78,2.37-1c0.88-0.22,1.75-0.33,2.62-0.33c1.12,0,2.16,0.1,3.1,0.29c0.94,0.19,1.78,0.52,2.51,0.99
			c0.73,0.47,1.31,1.11,1.74,1.91c0.43,0.8,0.69,1.81,0.77,3h-3.25c-0.05-0.64-0.22-1.17-0.5-1.59c-0.28-0.42-0.64-0.76-1.07-1.01
			c-0.43-0.25-0.91-0.44-1.44-0.55c-0.52-0.11-1.05-0.17-1.59-0.17c-0.49,0-0.98,0.04-1.47,0.11c-0.5,0.08-0.95,0.21-1.36,0.4
			c-0.41,0.19-0.74,0.45-1,0.77c-0.25,0.32-0.38,0.73-0.38,1.24c0,0.56,0.2,1.03,0.59,1.4c0.4,0.37,0.9,0.68,1.51,0.92
			c0.61,0.24,1.3,0.45,2.07,0.61c0.77,0.17,1.53,0.34,2.3,0.52c0.82,0.18,1.61,0.4,2.39,0.65c0.78,0.26,1.47,0.59,2.07,1.01
			c0.6,0.42,1.08,0.95,1.45,1.59c0.37,0.64,0.55,1.43,0.55,2.37c0,1.2-0.25,2.19-0.75,2.98c-0.5,0.79-1.15,1.43-1.95,1.91
			c-0.8,0.49-1.71,0.82-2.72,1.01c-1.01,0.19-2.01,0.29-3,0.29c-1.1,0-2.14-0.12-3.14-0.34c-1-0.23-1.88-0.61-2.64-1.13
			c-0.77-0.52-1.38-1.21-1.84-2.07c-0.46-0.85-0.71-1.89-0.77-3.12h3.25C385.46,38.17,385.63,38.77,385.94,39.27z"/>
	</g>
</g>
<g>
</g>
<g>
</g>
<g>
</g>
<g>
</g>
<g>
</g>
<g>
</g>
<g>
</g>
<g>
</g>
<g>
</g>
<g>
</g>
<g>
</g>
<g>
</g>
<g>
</g>
<g>
</g>
<g>
</g>
</svg>
